<svg width="50" height="50" viewBox="0 0 50 50" fill="none" xmlns="http://www.w3.org/2000/svg">
<path d="M42.6768 7.32323C37.9524 2.59891 31.6814 0 25 0C18.3186 0 12.0476 2.59891 7.32323 7.32323C2.59891 12.0476 0 18.3186 0 25C0 31.6814 2.59891 37.9524 7.32323 42.6768C12.0476 47.4011 18.3186 50 25 50C31.6814 50 37.9524 47.4011 42.6768 42.6768C47.4011 37.9524 50 31.6814 50 25C50 18.3186 47.4011 12.0476 42.6768 7.32323ZM40.6671 40.6671C36.4794 44.8548 30.9133 47.1591 25 47.1591C19.0867 47.1591 13.5206 44.8548 9.33291 40.6671C0.694444 32.0286 0.694444 17.9714 9.33291 9.33291C13.5206 5.1452 19.0867 2.84091 25 2.84091C30.9133 2.84091 36.4794 5.1452 40.6671 9.33291C49.3056 17.9714 49.3056 32.0286 40.6671 40.6671Z" fill="#FFF4F4"/>
<path d="M36.0164 13.9836C35.4587 13.4259 34.5644 13.4259 34.0067 13.9836L25 22.9903L15.9932 13.9836C15.4356 13.4259 14.5412 13.4259 13.9836 13.9836C13.4259 14.5412 13.4259 15.4356 13.9836 15.9933L22.9903 25L13.9836 34.0067C13.4259 34.5644 13.4259 35.4587 13.9836 36.0164C14.2571 36.29 14.6254 36.4373 14.9831 36.4373C15.3409 36.4373 15.7091 36.3005 15.9827 36.0164L24.9894 27.0097L33.9962 36.0164C34.2697 36.29 34.638 36.4373 34.9958 36.4373C35.364 36.4373 35.7218 36.3005 35.9953 36.0164C36.553 35.4587 36.553 34.5644 35.9953 34.0067L27.0096 25L36.0164 15.9933C36.574 15.4356 36.574 14.5412 36.0164 13.9836Z" fill="#FFF4F4"/>
</svg>
