<svg width="80" height="80" viewBox="0 0 80 80" fill="none" xmlns="http://www.w3.org/2000/svg">
<path d="M40.0025 70C38.1558 70 36.6691 71.4867 36.6691 73.3333V76.6667C36.6691 78.5133 38.1558 80 40.0025 80C41.8492 80 43.3358 78.5133 43.3358 76.6667V73.3333C43.3358 71.4867 41.8492 70 40.0025 70ZM63.5703 60.2344C62.7185 60.2344 61.8666 60.5576 61.2133 61.2104C59.9076 62.5163 59.9076 64.6185 61.2133 65.9237L63.5703 68.2815C64.8763 69.5867 66.9777 69.5867 68.2837 68.2815C69.5896 66.9748 69.5896 64.8733 68.2837 63.5674L65.9274 61.2104C65.274 60.5579 64.4222 60.2344 63.5703 60.2344ZM16.4334 60.2344C15.5814 60.2344 14.7295 60.5576 14.0766 61.2104L11.7199 63.5674C10.414 64.8741 10.414 66.9756 11.7199 68.2815C13.0257 69.5867 15.1275 69.5867 16.4335 68.2815L18.7903 65.9237C20.0961 64.6185 20.0961 62.5163 18.7903 61.2104C18.1374 60.5579 17.2856 60.2344 16.4335 60.2344H16.4334ZM73.3333 36.6667C71.4866 36.6667 70 38.153 70 40C70 41.8467 71.4866 43.3333 73.3333 43.3333H76.6667C78.5133 43.3333 80 41.8467 80 40C80 38.153 78.5133 36.6667 76.6667 36.6667H73.3333ZM3.33334 36.6667C1.48667 36.6667 0 38.153 0 40C0 41.8467 1.48667 43.3333 3.33334 43.3333H6.66669C8.51336 43.3333 10 41.8467 10 40C10 38.153 8.51336 36.6667 6.66669 36.6667H3.33334ZM40.0001 13.3333C32.9276 13.3333 26.1449 16.1428 21.1439 21.1438C16.1429 26.1447 13.3334 32.9276 13.3334 40C13.3334 47.0724 16.1429 53.8553 21.1439 58.8562C26.1449 63.857 32.9276 66.6667 40.0001 66.6667C47.0726 66.6667 53.8554 63.857 58.8564 58.8562C63.857 53.8553 66.6666 47.0724 66.6666 40C66.6666 32.9276 63.857 26.1447 58.8564 21.1438C53.8554 16.1428 47.0726 13.3333 40.0001 13.3333ZM40.0001 20C45.3045 20 50.3916 22.107 54.1423 25.8578C57.8931 29.6084 60.0002 34.6957 60.0002 40C60.0002 45.3043 57.8931 50.3916 54.1423 54.1422C50.3916 57.893 45.3045 60 40.0001 60C34.6958 60 29.6087 57.893 25.858 54.1422C22.1072 50.3916 20.0001 45.3043 20.0001 40C20.0001 34.6957 22.1072 29.6084 25.858 25.8578C29.6087 22.107 34.6958 20 40.0001 20ZM65.9244 10.7357C65.0726 10.7357 64.2207 11.0658 63.5681 11.7187L61.2111 14.0756C59.9052 15.3812 59.9052 17.4834 61.2111 18.789C62.517 20.095 64.6185 20.095 65.9244 18.789L68.2815 16.4323C69.5874 15.1266 69.5874 13.0247 68.2815 11.7187C67.6289 11.0661 66.777 10.7357 65.9244 10.7357ZM14.0744 10.7357C13.2223 10.7357 12.3705 11.0658 11.7177 11.7187C10.4118 13.0247 10.4118 15.1266 11.7177 16.4323L14.0744 18.789C15.3802 20.095 17.482 20.095 18.7881 18.789C20.0939 17.4834 20.0939 15.3812 18.7881 14.0756L16.4313 11.7187C15.7784 11.0661 14.9266 10.7357 14.0746 10.7357H14.0744ZM39.9988 0C38.1521 0 36.6654 1.48637 36.6654 3.33333V6.66667C36.6654 8.51333 38.1521 10 39.9988 10C41.8455 10 43.3321 8.51333 43.3321 6.66667V3.33333C43.3321 1.48637 41.8455 0 39.9988 0Z" fill="#FFF4F4"/>
</svg>
