<svg width="30" height="30" viewBox="0 0 28 30" fill="none" xmlns="http://www.w3.org/2000/svg">
<path opacity="0.7" d="M13.5912 30C6.09666 30 0 23.897 0 16.4046C0 8.91111 6.09666 2.81127 13.5912 2.81127C14.089 2.81127 14.5921 2.83993 15.092 2.89618V0.699091C15.092 0.41676 15.2661 0.159902 15.5229 0.050578C15.7904 -0.0534389 16.0865 0.00493794 16.2903 0.207665L21.1059 5.03383C21.3797 5.30767 21.3797 5.74497 21.1059 6.02306L16.2924 10.8598C16.0876 11.0594 15.7904 11.1209 15.5229 11.0116C15.2661 10.9012 15.092 10.6465 15.092 10.3652V7.92826C14.5942 7.83698 14.0932 7.79559 13.5912 7.79559C8.84356 7.79559 4.98007 11.658 4.98007 16.4046C4.98007 21.1501 8.84462 25.0157 13.5912 25.0157C18.3377 25.0157 22.2002 21.149 22.2002 16.4046C22.2002 16.0193 22.5133 15.7041 22.9028 15.7041H26.4787C26.8661 15.7041 27.1813 16.0193 27.1813 16.4046C27.1813 23.897 21.0804 30 13.5912 30Z" fill="#FFF4F4"/>
</svg>
