<svg width="144" height="144" viewBox="0 0 144 144" fill="none" xmlns="http://www.w3.org/2000/svg">
<path d="M85.5 36.0001C72.4698 36.0046 60.4593 43.0505 54.0967 54.422C52.5794 54.152 51.0416 54.008 49.5 53.999C34.5884 53.999 22.5 66.0869 22.5 80.999C22.5 95.9107 34.5884 107.999 49.5 107.999H85.5C105.382 107.999 121.5 91.8809 121.5 71.999C121.5 52.1167 105.382 35.999 85.5 35.999V36.0001ZM85.5 45.0001C100.412 45.0001 112.5 57.0885 112.5 72.0001C112.5 86.9118 100.412 99.0001 85.5 99.0001H49.5C39.559 99.0001 31.5 90.9411 31.5 81.0001C31.5 71.0592 39.559 63.0001 49.5 63.0001C52.9525 63.0001 56.3301 64.0087 59.2294 65.8829C62.0716 53.6645 72.9554 45.0127 85.5 45.0001Z" fill="#FFF3F3"/>
</svg>
