<svg width="144" height="144" viewBox="0 0 144 144" fill="none" xmlns="http://www.w3.org/2000/svg">
<path d="M67.5 31.5C52.8133 31.5 39.6068 40.4443 34.128 54.0703C19.9791 55.054 9.0027 66.8169 9 81C9 95.2267 20.0173 106.837 33.9786 107.877L39.1027 99H36.0002C26.0593 99 18.0002 90.941 18.0002 81C18.0002 71.059 26.0593 63 36.0002 63C37.6256 63 39.2428 63.2291 40.808 63.6674C42.7124 50.3852 54.0821 40.5171 67.5002 40.5C80.4008 40.5 91.4911 49.6463 93.9728 62.3057C97.4052 59.8392 101.523 58.5086 105.75 58.5C116.934 58.5 126 67.5661 126 78.75C126 89.9339 116.934 99 105.75 99H103.5L98.3149 108H105.75C121.904 108 135 94.9046 135 78.75C135 62.5959 121.904 49.5 105.75 49.5C103.506 49.5 101.271 49.7792 99.088 50.2998C92.7925 38.7249 80.6762 31.5135 67.5002 31.5H67.5ZM56.2459 90.6075C58.405 91.854 59.1396 94.5958 57.8931 96.7549L53.3931 104.549C52.1466 106.708 49.405 107.443 47.2461 106.196C45.0871 104.95 44.3525 102.208 45.599 100.049L50.099 92.2549C51.3455 90.0958 54.0871 89.361 56.246 90.6075H56.2459ZM74.2459 90.6075C76.405 91.854 77.1396 94.5958 75.8931 96.7549L71.3931 104.549C70.1466 106.708 67.405 107.443 65.2461 106.196C63.0871 104.95 62.3525 102.208 63.599 100.049L68.099 92.2549C69.3455 90.0958 72.0871 89.361 74.246 90.6075H74.2459ZM92.2459 90.6075C94.405 91.854 95.1396 94.5958 93.8931 96.7549L89.3931 104.549C88.1466 106.708 85.405 107.443 83.2461 106.196C81.0871 104.95 80.3525 102.208 81.599 100.049L86.099 92.2549C87.3455 90.0958 90.0871 89.361 92.2459 90.6075ZM56.2536 114.306C58.4126 115.552 59.1472 118.294 57.9007 120.453L53.4007 128.247C52.1542 130.406 49.4126 131.141 47.2537 129.894C45.0947 128.648 44.3601 125.906 45.6066 123.747L50.1066 115.953C51.3531 113.794 54.0947 113.059 56.2536 114.306H56.2536ZM74.2536 114.306C76.4126 115.552 77.1472 118.294 75.9007 120.453L71.4007 128.247C70.1542 130.406 67.4126 131.141 65.2537 129.894C63.0947 128.648 62.3601 125.906 63.6066 123.747L68.1066 115.953C69.3531 113.794 72.0947 113.059 74.2536 114.306H74.2536Z" fill="#FFF3F3"/>
</svg>
