<svg width="144" height="144" viewBox="0 0 144 144" fill="none" xmlns="http://www.w3.org/2000/svg">
<path d="M74.25 108C73.0035 108 72 110.007 72 112.5V113.818L71.0684 112.886C69.3055 111.124 67.1773 110.415 66.2957 111.296C65.4143 112.177 66.1238 114.305 67.8865 116.068L68.8181 117H67.4998C65.0068 117 62.9998 118.003 62.9998 119.25C62.9998 120.497 65.0068 121.5 67.4998 121.5H68.8181L67.8865 122.432C66.1237 124.195 65.4143 126.323 66.2957 127.204C67.1771 128.086 69.3053 127.375 71.0684 125.613L72 124.682V126C72 128.493 73.0035 130.5 74.25 130.5C75.4965 130.5 76.5 128.493 76.5 126V124.682L77.4316 125.613C79.1945 127.376 81.3227 128.086 82.2043 127.204C83.0857 126.323 82.3762 124.195 80.6135 122.432L79.6819 121.5H81.0002C83.4932 121.5 85.5002 120.497 85.5002 119.25C85.5002 118.003 83.4932 117 81.0002 117H79.6819L80.6135 116.068C82.3763 114.305 83.0857 112.177 82.2043 111.296C81.3229 110.415 79.1947 111.124 77.4316 112.886L76.5 113.818V112.5C76.5 110.007 75.4965 108 74.25 108ZM47.25 108C46.0035 108 45 110.007 45 112.5V113.818L44.0684 112.886C42.3055 111.124 40.1773 110.415 39.2957 111.296C38.4143 112.177 39.1238 114.305 40.8865 116.068L41.8181 117H40.4998C38.0068 117 35.9998 118.003 35.9998 119.25C35.9998 120.497 38.0068 121.5 40.4998 121.5H41.8181L40.8865 122.432C39.1237 124.195 38.4143 126.323 39.2957 127.204C40.1771 128.086 42.3053 127.375 44.0684 125.613L45 124.682V126C45 128.493 46.0035 130.5 47.25 130.5C48.4965 130.5 49.5 128.493 49.5 126V124.682L50.4316 125.613C52.1945 127.376 54.3227 128.086 55.2043 127.204C56.0857 126.323 55.3762 124.195 53.6135 122.432L52.6819 121.5H54.0002C56.4932 121.5 58.5002 120.497 58.5002 119.25C58.5002 118.003 56.4932 117 54.0002 117H52.6819L53.6135 116.068C55.3763 114.305 56.0857 112.177 55.2043 111.296C54.3229 110.415 52.1947 111.124 50.4316 112.886L49.5 113.818V112.5C49.5 110.007 48.4965 108 47.25 108ZM83.25 85.5C82.0035 85.5 81 87.507 81 90V91.3184L80.0684 90.3862C78.3055 88.6235 76.1773 87.9148 75.2957 88.7959C74.4143 89.6774 75.1238 91.8053 76.8865 93.5684L77.8181 94.5H76.4998C74.0068 94.5 71.9998 95.5035 71.9998 96.75C71.9998 97.9965 74.0068 99 76.4998 99H77.8181L76.8865 99.9316C75.1237 101.695 74.4143 103.823 75.2957 104.704C76.1771 105.586 78.3053 104.875 80.0684 103.113L81 102.182V103.5C81 105.993 82.0035 108 83.25 108C84.4965 108 85.5 105.993 85.5 103.5V102.182L86.4316 103.113C88.1945 104.876 90.3227 105.586 91.2043 104.704C92.0857 103.823 91.3762 101.695 89.6135 99.9316L88.6819 99H90.0002C92.4932 99 94.5002 97.9965 94.5002 96.75C94.5002 95.5035 92.4932 94.5 90.0002 94.5H88.6819L89.6135 93.5684C91.3763 91.8053 92.0857 89.6774 91.2043 88.7959C90.3229 87.9148 88.1947 88.6244 86.4316 90.3862L85.5 91.3184V90C85.5 87.507 84.4965 85.5 83.25 85.5ZM56.25 85.5C55.0035 85.5 54 87.507 54 90V91.3184L53.0684 90.3862C51.3055 88.6235 49.1773 87.9148 48.2957 88.7959C47.4143 89.6774 48.1238 91.8053 49.8865 93.5684L50.8181 94.5H49.4998C47.0068 94.5 44.9998 95.5035 44.9998 96.75C44.9998 97.9965 47.0068 99 49.4998 99H50.8181L49.8865 99.9316C48.1237 101.695 47.4143 103.823 48.2957 104.704C49.1771 105.586 51.3053 104.875 53.0684 103.113L54 102.182V103.5C54 105.993 55.0035 108 56.25 108C57.4965 108 58.5 105.993 58.5 103.5V102.182L59.4316 103.113C61.1945 104.876 63.3227 105.586 64.2043 104.704C65.0857 103.823 64.3762 101.695 62.6135 99.9316L61.6819 99H63.0002C65.4932 99 67.5002 97.9965 67.5002 96.75C67.5002 95.5035 65.4932 94.5 63.0002 94.5H61.6819L62.6135 93.5684C64.3763 91.8053 65.0857 89.6774 64.2043 88.7959C63.3229 87.9148 61.1947 88.6244 59.4316 90.3862L58.5 91.3184V90C58.5 87.507 57.4965 85.5 56.25 85.5ZM67.5 31.5C52.8133 31.5 39.6068 40.4443 34.128 54.0703C19.9791 55.054 9.0027 66.8169 9 81C9 95.2267 20.0173 106.837 33.9786 107.877L39.1027 99H36.0002C26.0593 99 18.0002 90.941 18.0002 81C18.0002 71.059 26.0593 63 36.0002 63C37.6256 63.0045 39.2428 63.2291 40.808 63.6674C42.7124 50.3852 54.0821 40.5171 67.5002 40.5C80.4008 40.5 91.4911 49.6463 93.9728 62.3057C97.4052 59.8392 101.523 58.5086 105.75 58.5C116.934 58.5 126 67.5661 126 78.75C126 89.9339 116.934 99 105.75 99H103.5L98.3149 108H105.75C121.904 108 135 94.9046 135 78.75C135 62.5959 121.904 49.5 105.75 49.5C103.506 49.5 101.271 49.7792 99.088 50.2998C92.7925 38.7249 80.6762 31.5135 67.5002 31.5H67.5Z" fill="#FFF3F3"/>
</svg>
