<svg width="144" height="144" viewBox="0 0 144 144" fill="none" xmlns="http://www.w3.org/2000/svg">
<g clip-path="url(#clip0)">
<path d="M81 22.5C67.1404 22.5 55.1299 30.3476 49.1134 41.8271C38.3998 44.7377 29.4021 52.4404 25.128 63.0703C10.9791 64.0536 0.0027 75.8173 0 90C0 104.912 12.0884 117 27 117H96.75C111.068 117 122.958 106.707 125.482 93.1201C136.235 89.5624 144 79.4471 144 67.5C144 52.5884 131.912 40.5 117 40.5C115.459 40.5 113.921 40.6485 112.403 40.923C106.041 29.5519 94.0302 22.5056 81 22.5011V22.5ZM81 31.5C93.5446 31.5 104.428 40.164 107.271 52.3828C110.17 50.5086 113.548 49.5094 117 49.5C126.941 49.5 135 57.559 135 67.5C135 74.3031 131.182 80.1544 125.613 83.2148C123.429 69.2198 111.358 58.5 96.75 58.5C94.506 58.5 92.2706 58.7787 90.0878 59.2998C84.1595 48.3999 73.0521 41.4529 60.7761 40.6582C65.7234 35.0562 72.9383 31.5 80.9996 31.5H81ZM58.5 49.5C71.4006 49.5 82.4908 58.6468 84.9726 71.3062C88.405 68.8393 92.5231 67.5086 96.75 67.5C107.934 67.5 117 76.5666 117 87.75C117 98.9339 107.934 108 96.75 108H27C17.059 108 9 99.9414 9 90C9 80.059 17.059 72 27 72C28.6254 72.0045 30.2426 72.2292 31.8078 72.668C33.7122 59.3853 45.0819 49.5171 58.5 49.5Z" fill="#FFF3F3"/>
</g>
<defs>
<clipPath id="clip0">
<rect width="144" height="144" fill="white"/>
</clipPath>
</defs>
</svg>
