<svg width="30" height="30" viewBox="0 0 30 30" fill="none" xmlns="http://www.w3.org/2000/svg">
<path opacity="0.7" d="M6.06079 29.9986C5.94964 29.9986 5.83848 29.9626 5.74504 29.891C5.57965 29.7648 5.49695 29.5512 5.53186 29.3398L7.19169 19.1857L0.161963 11.9953C0.0159014 11.8454 -0.0367236 11.6216 0.0261042 11.4182C0.089469 11.2142 0.257547 11.0654 0.459992 11.0344L10.1741 9.55283L14.5189 0.314464C14.6091 0.121728 14.796 0 15.0001 0C15.2047 0 15.3915 0.121728 15.4812 0.314464L19.8254 9.55283L29.5401 11.0344C29.7426 11.0654 29.9101 11.2136 29.974 11.4182C30.0368 11.6216 29.9848 11.8459 29.8382 11.9953L22.8084 19.1868L24.4677 29.3404C24.5021 29.5517 24.4194 29.7653 24.2545 29.8916C24.0891 30.0189 23.8695 30.0353 23.6885 29.9344L15.0001 25.1408L6.31049 29.9344C6.23209 29.9772 6.14617 29.9986 6.06079 29.9986ZM1.69077 11.9851L8.14324 18.5861C8.26943 18.7151 8.32743 18.9022 8.29735 19.0848L6.77391 28.4049L14.7504 24.0047C14.9066 23.9179 15.093 23.9179 15.2503 24.0047L23.2257 28.4049L21.7028 19.0848C21.6727 18.9022 21.7307 18.7157 21.8569 18.5861L28.3093 11.9851L19.3926 10.6253C19.2176 10.5988 19.0667 10.4833 18.9883 10.317L15.0001 1.83776L11.0118 10.3176C10.9334 10.4838 10.7825 10.5994 10.6075 10.6258L1.69077 11.9851Z" fill="#FFF4F4"/>
</svg>
