<svg width="144" height="144" viewBox="0 0 144 144" fill="none" xmlns="http://www.w3.org/2000/svg">
<path d="M72.0045 112.5C69.5115 112.5 67.5045 114.507 67.5045 117V121.5C67.5045 123.993 69.5115 126 72.0045 126C74.4975 126 76.5045 123.993 76.5045 121.5V117C76.5045 114.507 74.4975 112.5 72.0045 112.5ZM103.821 99.3164C102.671 99.3164 101.521 99.7527 100.639 100.634C98.8764 102.397 98.8764 105.235 100.639 106.997L103.821 110.18C105.584 111.942 108.421 111.942 110.184 110.18C111.947 108.416 111.947 105.579 110.184 103.816L107.003 100.634C106.121 99.7531 104.971 99.3164 103.821 99.3164H103.821ZM40.1863 99.3164C39.0361 99.3164 37.8861 99.7527 37.0047 100.634L33.8231 103.816C32.0602 105.58 32.0602 108.417 33.8231 110.18C35.5859 111.942 38.4234 111.942 40.1865 110.18L43.3682 106.997C45.131 105.235 45.131 102.397 43.3682 100.634C42.4867 99.7531 41.3368 99.3164 40.1865 99.3164H40.1863ZM117.001 67.5C114.508 67.5 112.501 69.5066 112.501 72C112.501 74.493 114.508 76.5 117.001 76.5H121.501C123.994 76.5 126.001 74.493 126.001 72C126.001 69.5066 123.994 67.5 121.501 67.5H117.001ZM22.5013 67.5C20.0083 67.5 18.0013 69.5066 18.0013 72C18.0013 74.493 20.0083 76.5 22.5013 76.5H27.0013C29.4943 76.5 31.5013 74.493 31.5013 72C31.5013 69.5066 29.4943 67.5 27.0013 67.5H22.5013ZM72.0013 36C62.4535 36 53.2968 39.7928 46.5455 46.5441C39.7942 53.2954 36.0013 62.4522 36.0013 72C36.0013 81.5478 39.7942 90.7046 46.5455 97.4559C53.2968 104.207 62.4535 108 72.0013 108C81.5491 108 90.7059 104.207 97.4572 97.4559C104.208 90.7046 108.001 81.5478 108.001 72C108.001 62.4522 104.208 53.2954 97.4572 46.5441C90.7059 39.7928 81.5491 36 72.0013 36ZM72.0013 45C79.1622 45 86.0297 47.8445 91.0932 52.908C96.1567 57.9714 99.0013 64.8392 99.0013 72C99.0013 79.1608 96.1567 86.0286 91.0932 91.092C86.0297 96.1555 79.1622 99 72.0013 99C64.8405 99 57.9729 96.1555 52.9095 91.092C47.846 86.0286 45.0013 79.1608 45.0013 72C45.0013 64.8392 47.846 57.9714 52.9095 52.908C57.9729 47.8445 64.8405 45 72.0013 45V45ZM106.999 32.4932C105.849 32.4932 104.699 32.9388 103.818 33.8203L100.636 37.002C98.8731 38.7646 98.8731 41.6026 100.636 43.3652C102.399 45.1283 105.236 45.1283 106.999 43.3652L110.181 40.1836C111.944 38.4209 111.944 35.5834 110.181 33.8203C109.3 32.9392 108.15 32.4932 106.999 32.4932H106.999ZM37.0017 32.4932C35.8514 32.4932 34.7014 32.9388 33.8201 33.8203C32.0572 35.5834 32.0572 38.4209 33.8201 40.1836L37.0017 43.3652C38.7645 45.1283 41.602 45.1283 43.3651 43.3652C45.128 41.6026 45.128 38.7646 43.3651 37.002L40.1835 33.8203C39.3021 32.9392 38.1521 32.4932 37.0019 32.4932H37.0017ZM71.9995 18C69.5065 18 67.4995 20.0066 67.4995 22.5V27C67.4995 29.493 69.5065 31.5 71.9995 31.5C74.4925 31.5 76.4995 29.493 76.4995 27V22.5C76.4995 20.0066 74.4925 18 71.9995 18Z" fill="#FFF3F3"/>
</svg>
