<svg width="144" height="144" viewBox="0 0 144 144" fill="none" xmlns="http://www.w3.org/2000/svg">
<path d="M67.5 31.5C52.8134 31.5 39.6068 40.4443 34.128 54.0703C19.9791 55.054 9.0027 66.8169 9 81C9 95.2267 20.0174 106.837 33.9786 107.877L39.1028 99H36.0002C26.0593 99 18.0002 90.941 18.0002 81C18.0002 71.059 26.0593 63 36.0002 63C37.6256 63 39.2428 63.2291 40.808 63.6674C42.7124 50.3852 54.0821 40.5171 67.5002 40.5C80.4008 40.5 91.4911 49.6463 93.9728 62.3057C97.4052 59.8392 101.523 58.5086 105.75 58.5C116.934 58.5 126 67.5661 126 78.75C126 89.9339 116.934 99 105.75 99H103.5L98.3149 108H105.75C121.904 108 135 94.9046 135 78.75C135 62.5959 121.904 49.5 105.75 49.5C103.506 49.5 101.271 49.7792 99.088 50.2998C92.7925 38.7249 80.6762 31.5135 67.5002 31.5H67.5ZM60.746 86.1075C62.905 87.354 63.6396 90.0953 62.3931 92.2544L44.2167 123.737C42.9702 125.896 40.2286 126.644 38.0697 125.397C35.9107 124.151 35.1761 121.396 36.4226 119.237L54.5989 87.7544C55.8454 85.5953 58.5871 84.861 60.746 86.1075V86.1075ZM78.746 86.1075C80.9049 87.354 81.6395 90.0953 80.393 92.2544L62.2166 123.737C60.9702 125.896 58.2285 126.644 56.0696 125.397C53.9106 124.151 53.1761 121.396 54.4225 119.237L72.5989 87.7544C73.8454 85.5953 76.587 84.861 78.7459 86.1075H78.746ZM96.746 86.1075C98.9049 87.354 99.6395 90.0953 98.393 92.2544L80.2166 123.737C78.9702 125.896 76.2286 126.644 74.0696 125.397C71.9106 124.151 71.176 121.396 72.4225 119.237L90.5989 87.7544C91.8454 85.5953 94.587 84.861 96.7459 86.1075H96.746Z" fill="#FFF3F3"/>
</svg>
