<svg width="144" height="144" viewBox="0 0 144 144" fill="none" xmlns="http://www.w3.org/2000/svg">
<path d="M67.5 31.5C52.8133 31.5 39.6068 40.4443 34.128 54.0703C19.9791 55.054 9.0027 66.8169 9 81C9 95.2267 20.0173 106.837 33.9786 107.877L39.1027 99H36.0002C26.0593 99 18.0002 90.941 18.0002 81C18.0002 71.059 26.0593 63 36.0002 63C37.6256 63.0045 39.2428 63.2291 40.808 63.6674C42.7124 50.3852 54.0821 40.5171 67.5002 40.5C80.4008 40.5 91.4911 49.6463 93.9728 62.3057C97.4052 59.8392 101.523 58.5086 105.75 58.5C116.934 58.5 126 67.5661 126 78.75C126 89.9339 116.934 99 105.75 99H103.5L98.3149 108H105.75C121.904 108 135 94.9046 135 78.75C135 62.5959 121.904 49.5 105.75 49.5C103.506 49.5 101.271 49.7792 99.088 50.2998C92.7925 38.7249 80.6762 31.5135 67.5002 31.5H67.5ZM63 81L54 108H63L58.5 130.5L81 99H67.5L76.5 81H63Z" fill="#FFF3F3"/>
</svg>
