<svg width="144" height="144" viewBox="0 0 144 144" fill="none" xmlns="http://www.w3.org/2000/svg">
<path d="M22.5009 36C20.0079 36 18.0009 38.007 18.0009 40.5C18.0009 42.993 20.0079 45 22.5009 45H121.501C123.994 45 126.001 42.993 126.001 40.5C126.001 38.007 123.994 36 121.501 36H22.5009V36ZM22.5009 54C20.0079 54 18.0009 56.007 18.0009 58.5C18.0009 60.993 20.0079 63 22.5009 63H121.501C123.994 63 126.001 60.993 126.001 58.5C126.001 56.007 123.994 54 121.501 54H22.5009V54ZM22.5009 72C20.0079 72 18.0009 74.007 18.0009 76.5C18.0009 78.993 20.0079 81 22.5009 81H121.501C123.994 81 126.001 78.993 126.001 76.5C126.001 74.007 123.994 72 121.501 72H22.5009V72ZM22.5009 90C20.0079 90 18.0009 92.007 18.0009 94.5C18.0009 96.993 20.0079 99 22.5009 99H121.501C123.994 99 126.001 96.993 126.001 94.5C126.001 92.007 123.994 90 121.501 90H22.5009V90Z" fill="#FFF3F3"/>
</svg>
